<svg width="450" height="799" viewBox="0 0 450 799" fill="none" xmlns="http://www.w3.org/2000/svg">
<g clip-path="url(#clip0_3235_1172)">
<rect width="450" height="799" fill="#151515"/>
<mask id="mask0_3235_1172" style="mask-type:luminance" maskUnits="userSpaceOnUse" x="0" y="0" width="450" height="799">
<rect width="450" height="799" fill="white"/>
</mask>
<g mask="url(#mask0_3235_1172)">
<path d="M168.84 270V193.2H191.976L198.312 222.288L199.56 257.328H202.056L203.208 222.288L209.64 193.2H232.68V270H218.28V246.384L221.064 205.872H218.472L214.44 247.344L208.488 270H193.032L187.176 247.344L183.048 205.872H180.552L183.24 246.384V270H168.84ZM260.339 270.96C253.299 270.96 248.195 269.472 245.027 266.496C241.891 263.52 240.243 258.576 240.083 251.664C240.019 248.528 239.971 245.264 239.939 241.872C239.907 238.48 239.891 235.04 239.891 231.552C239.891 228.064 239.907 224.624 239.939 221.232C239.971 217.84 240.019 214.576 240.083 211.44C240.243 204.56 241.891 199.648 245.027 196.704C248.195 193.728 253.299 192.24 260.339 192.24C267.411 192.24 272.483 193.728 275.555 196.704C278.627 199.648 280.275 204.56 280.499 211.44C280.627 214.64 280.723 217.936 280.787 221.328C280.851 224.72 280.883 228.16 280.883 231.648C280.883 235.104 280.851 238.528 280.787 241.92C280.723 245.28 280.627 248.528 280.499 251.664C280.275 258.576 278.627 263.52 275.555 266.496C272.483 269.472 267.411 270.96 260.339 270.96ZM260.339 259.248C262.227 259.248 263.651 258.832 264.611 258C265.571 257.136 266.067 255.92 266.099 254.352C266.259 251.088 266.371 247.504 266.435 243.6C266.499 239.696 266.531 235.68 266.531 231.552C266.531 227.424 266.499 223.408 266.435 219.504C266.371 215.6 266.259 212.016 266.099 208.752C266.067 207.216 265.555 206.032 264.563 205.2C263.571 204.368 262.163 203.952 260.339 203.952C258.515 203.952 257.091 204.368 256.067 205.2C255.075 206.032 254.547 207.216 254.483 208.752C254.355 212.016 254.243 215.6 254.147 219.504C254.083 223.408 254.051 227.424 254.051 231.552C254.051 235.68 254.083 239.696 254.147 243.6C254.243 247.504 254.355 251.088 254.483 254.352C254.547 255.92 255.075 257.136 256.067 258C257.091 258.832 258.515 259.248 260.339 259.248ZM287.996 270V193.2H307.484C314.684 193.2 319.884 194.736 323.084 197.808C326.316 200.848 327.996 205.872 328.124 212.88C328.22 217.328 328.284 221.552 328.316 225.552C328.348 229.552 328.348 233.552 328.316 237.552C328.284 241.552 328.22 245.776 328.124 250.224C327.996 257.264 326.316 262.32 323.084 265.392C319.884 268.464 314.684 270 307.484 270H287.996ZM302.396 257.328H307.484C309.5 257.328 311.036 256.864 312.092 255.936C313.148 255.008 313.692 253.68 313.724 251.952C313.82 248.528 313.884 245.12 313.916 241.728C313.98 238.336 314.012 234.944 314.012 231.552C314.012 228.16 313.98 224.768 313.916 221.376C313.884 217.952 313.82 214.544 313.724 211.152C313.692 209.456 313.148 208.16 312.092 207.264C311.036 206.336 309.5 205.872 307.484 205.872H302.396V257.328ZM335.528 270V193.2H368.744V205.872H349.928V224.592H367.784V237.264H349.928V257.328H368.744V270H335.528ZM374.715 270V193.2H393.243C400.411 193.2 405.579 194.656 408.747 197.568C411.947 200.448 413.659 205.232 413.883 211.92C413.947 213.712 413.979 215.28 413.979 216.624C414.011 217.968 414.011 219.312 413.979 220.656C413.979 222 413.947 223.568 413.883 225.36C413.755 229.52 413.051 232.928 411.771 235.584C410.523 238.24 408.571 240.272 405.915 241.68L414.939 270H399.675L392.379 244.08H389.115V270H374.715ZM389.115 231.408H393.243C395.259 231.408 396.779 230.944 397.803 230.016C398.827 229.088 399.387 227.792 399.483 226.128C399.579 224.56 399.643 222.928 399.675 221.232C399.707 219.504 399.707 217.792 399.675 216.096C399.643 214.368 399.579 212.72 399.483 211.152C399.387 209.456 398.827 208.16 397.803 207.264C396.779 206.336 395.259 205.872 393.243 205.872H389.115V231.408ZM420.465 270V193.2H441.297L447.057 217.68L452.337 257.328H454.833L452.145 226.128L450.993 193.2H464.913V270H443.025L437.265 244.848L433.329 205.776H430.641L433.137 240.528L434.385 270H420.465ZM165.96 358L176.616 281.2H199.272L209.928 358H195.144L193.512 341.968H182.376L180.744 358H165.96ZM183.72 329.296H192.168L190.44 312.304L189.288 293.872H186.6L185.448 312.304L183.72 329.296ZM214.684 358V281.2H233.212C240.38 281.2 245.548 282.656 248.716 285.568C251.916 288.448 253.628 293.232 253.852 299.92C253.916 301.712 253.948 303.28 253.948 304.624C253.98 305.968 253.98 307.312 253.948 308.656C253.948 310 253.916 311.568 253.852 313.36C253.724 317.52 253.02 320.928 251.74 323.584C250.492 326.24 248.54 328.272 245.884 329.68L254.908 358H239.644L232.348 332.08H229.084V358H214.684ZM229.084 319.408H233.212C235.228 319.408 236.748 318.944 237.772 318.016C238.796 317.088 239.356 315.792 239.452 314.128C239.548 312.56 239.612 310.928 239.644 309.232C239.676 307.504 239.676 305.792 239.644 304.096C239.612 302.368 239.548 300.72 239.452 299.152C239.356 297.456 238.796 296.16 237.772 295.264C236.748 294.336 235.228 293.872 233.212 293.872H229.084V319.408ZM269.506 358V293.872H257.17V281.2H296.242V293.872H283.906V358H269.506ZM340.873 358.96C336.041 358.96 332.169 358.32 329.257 357.04C326.345 355.728 324.217 353.664 322.873 350.848C321.529 348 320.777 344.272 320.617 339.664C320.521 336.976 320.441 333.92 320.377 330.496C320.345 327.04 320.329 323.488 320.329 319.84C320.329 316.192 320.345 312.672 320.377 309.28C320.441 305.888 320.521 302.896 320.617 300.304C320.809 295.44 321.593 291.536 322.969 288.592C324.377 285.648 326.521 283.52 329.401 282.208C332.313 280.896 336.137 280.24 340.873 280.24C347.593 280.24 352.489 281.728 355.561 284.704C358.665 287.648 360.425 292.56 360.841 299.44C360.937 300.912 360.985 302.672 360.985 304.72C360.985 306.736 360.937 308.496 360.841 310H346.441C346.537 308.208 346.585 306 346.585 303.376C346.585 300.72 346.537 298.512 346.441 296.752C346.345 295.216 345.817 294.032 344.857 293.2C343.897 292.368 342.569 291.952 340.873 291.952C339.017 291.952 337.593 292.368 336.601 293.2C335.641 294.032 335.113 295.216 335.017 296.752C334.825 300.112 334.681 303.744 334.585 307.648C334.489 311.52 334.441 315.488 334.441 319.552C334.441 323.616 334.489 327.6 334.585 331.504C334.681 335.376 334.825 338.992 335.017 342.352C335.113 343.92 335.641 345.136 336.601 346C337.593 346.832 339.017 347.248 340.873 347.248C342.697 347.248 344.153 346.832 345.241 346C346.361 345.136 346.985 343.92 347.113 342.352C347.177 341.616 347.209 340.656 347.209 339.472C347.241 338.256 347.241 337.056 347.209 335.872C347.209 334.656 347.177 333.68 347.113 332.944H341.833V320.464H361.129C361.289 323.376 361.353 326.576 361.321 330.064C361.289 333.52 361.193 336.72 361.033 339.664C360.713 346.576 358.985 351.52 355.849 354.496C352.745 357.472 347.753 358.96 340.873 358.96ZM364.804 358L375.46 281.2H398.116L408.772 358H393.988L392.356 341.968H381.22L379.588 358H364.804ZM382.564 329.296H391.012L389.284 312.304L388.132 293.872H385.444L384.292 312.304L382.564 329.296ZM413.528 358V281.2H427.928V345.328H446.84V358H413.528ZM452.153 358V281.2H466.553V345.328H485.465V358H452.153ZM490.778 358V281.2H523.994V293.872H505.178V312.592H523.034V325.264H505.178V345.328H523.994V358H490.778ZM529.965 358V281.2H548.493C555.661 281.2 560.829 282.656 563.997 285.568C567.197 288.448 568.909 293.232 569.133 299.92C569.197 301.712 569.229 303.28 569.229 304.624C569.261 305.968 569.261 307.312 569.229 308.656C569.229 310 569.197 311.568 569.133 313.36C569.005 317.52 568.301 320.928 567.021 323.584C565.773 326.24 563.821 328.272 561.165 329.68L570.189 358H554.925L547.629 332.08H544.365V358H529.965ZM544.365 319.408H548.493C550.509 319.408 552.029 318.944 553.053 318.016C554.077 317.088 554.637 315.792 554.733 314.128C554.829 312.56 554.893 310.928 554.925 309.232C554.957 307.504 554.957 305.792 554.925 304.096C554.893 302.368 554.829 300.72 554.733 299.152C554.637 297.456 554.077 296.16 553.053 295.264C552.029 294.336 550.509 293.872 548.493 293.872H544.365V319.408ZM583.151 358V339.76V339.664L568.751 281.2H583.439L587.567 299.824L589.007 322.384H591.695L593.135 299.824L597.263 281.2H611.951L597.551 339.664V339.76V358H583.151Z" fill="white"/>
</g>
</g>
<defs>
<clipPath id="clip0_3235_1172">
<rect width="450" height="799" fill="white"/>
</clipPath>
</defs>
</svg>
